C:\Users\r0593348\3dpredictsim\Results\Batchsim_tmt_linear\Pog_s1_tmt_bCst_d05_k2000_ig24_pas_GRF.mot
nRows=17
nColumns=19

name C:\Users\r0593348\3dpredictsim\Results\Batchsim_tmt_linear\Pog_s1_tmt_bCst_d05_k2000_ig24_pas_GRF.mot
datacolumns 19
datarows 17
range 0.0000000000 0.1760433911
endheader
time 	ground_force_vx	ground_force_vy	ground_force_vz	ground_force_px	ground_force_py	ground_force_pz	1_ground_force_vx	1_ground_force_vy	1_ground_force_vz	1_ground_force_px	1_ground_force_py	1_ground_force_pz	ground_torque_x	ground_torque_y	ground_torque_z	1_ground_torque_x	1_ground_torque_y	1_ground_torque_z
        0.0000000000	      -76.8350121523	       61.4378680873	       26.6391291973	        0.1718805221	        0.0000000000	        0.0386943576	      101.4912373047	      527.1503309240	       -3.0122711962	       -0.3097504043	        0.0000000000	       -0.0360464345	        0.0000000000	        0.0000000000	        0.0000000000	        0.0000000000	        0.0000000000	        0.0000000000	
        0.0110027119	     -120.7563348024	      134.1709888489	       67.3100901452	        0.1796932743	        0.0000000000	        0.0363714993	       85.8045530517	      450.6282786979	       -6.9696146642	       -0.3066901959	        0.0000000000	       -0.0352790871	        0.0000000000	        0.0000000000	        0.0000000000	        0.0000000000	        0.0000000000	        0.0000000000	
        0.0220054239	      -47.2216406978	      264.7117710862	       34.0086336608	        0.1854776200	        0.0000000000	        0.0339805975	       69.6224874981	      365.5876170738	       -8.8043782677	       -0.3021182090	        0.0000000000	       -0.0338015310	        0.0000000000	        0.0000000000	        0.0000000000	        0.0000000000	        0.0000000000	        0.0000000000	
        0.0330081358	      -37.4923906734	      410.1702073485	        5.2636375747	        0.1887445377	        0.0000000000	        0.0337130920	       48.4896803570	      274.9730112926	       -5.3529390058	       -0.2948436854	        0.0000000000	       -0.0308593503	        0.0000000000	        0.0000000000	        0.0000000000	        0.0000000000	        0.0000000000	        0.0000000000	
        0.0440108478	      -66.1846078844	      584.5606005081	       -4.1407529490	        0.1961702795	        0.0000000000	        0.0358843619	       21.6364768636	      179.1932368608	       -6.9984191772	       -0.2812072415	        0.0000000000	       -0.0246512167	        0.0000000000	        0.0000000000	        0.0000000000	        0.0000000000	        0.0000000000	        0.0000000000	
        0.0550135597	      -93.8303021754	      732.2233641071	      -10.1720492761	        0.2030034275	        0.0000000000	        0.0379540318	        4.9544478143	      133.2057964453	      -11.6163583825	       -0.2724109855	        0.0000000000	       -0.0201139061	        0.0000000000	        0.0000000000	        0.0000000000	        0.0000000000	        0.0000000000	        0.0000000000	
        0.0660162717	     -106.4232015179	      807.7280645859	      -11.9874249090	        0.2076712911	        0.0000000000	        0.0392512257	        1.9742051280	      102.4347028472	      -12.3270425599	       -0.2719774982	        0.0000000000	       -0.0202275026	        0.0000000000	        0.0000000000	        0.0000000000	        0.0000000000	        0.0000000000	        0.0000000000	
        0.0770189836	     -105.7425419135	      825.4347182504	      -12.6211647364	        0.2110639077	        0.0000000000	        0.0400381486	       -2.4026731417	       66.2076322979	      -11.2128097454	       -0.2715472793	        0.0000000000	       -0.0202708065	        0.0000000000	        0.0000000000	        0.0000000000	        0.0000000000	        0.0000000000	        0.0000000000	
        0.0880216956	      -99.2049459796	      815.1438694497	      -12.7594009632	        0.2140409376	        0.0000000000	        0.0404995905	       -8.0566495679	       26.9150847683	       -5.5480593651	       -0.2719053635	        0.0000000000	       -0.0199734183	        0.0000000000	        0.0000000000	        0.0000000000	        0.0000000000	        0.0000000000	        0.0000000000	
        0.0990244075	      -89.8656974113	      797.6896389882	      -13.3775824414	        0.2172210676	        0.0000000000	        0.0407260756	        0.0923052078	       -0.0913583034	        0.0021586162	        0.0000000000	        0.0000000000	        0.0000000000	        0.0000000000	        0.0000000000	        0.0000000000	        0.0000000000	        0.0000000000	        0.0000000000	
        0.1100271195	      -78.1837012382	      771.5297999687	      -14.2625006682	        0.2205386183	        0.0000000000	        0.0408334012	        0.0001529426	       -0.0001243028	       -0.0000082596	        0.0000000000	        0.0000000000	        0.0000000000	        0.0000000000	        0.0000000000	        0.0000000000	        0.0000000000	        0.0000000000	        0.0000000000	
        0.1210298314	      -67.9786456951	      743.0916882839	      -14.7189073609	        0.2245457501	        0.0000000000	        0.0408470026	        0.0000522352	       -0.0000368416	       -0.0000037833	        0.0000000000	        0.0000000000	        0.0000000000	        0.0000000000	        0.0000000000	        0.0000000000	        0.0000000000	        0.0000000000	        0.0000000000	
        0.1320325433	      -58.9642039666	      715.1471221838	      -15.1069352127	        0.2290042937	        0.0000000000	        0.0407710949	        0.0004736328	       -0.0002993480	       -0.0000384343	        0.0000000000	        0.0000000000	        0.0000000000	        0.0000000000	        0.0000000000	        0.0000000000	        0.0000000000	        0.0000000000	        0.0000000000	
        0.1430352553	      -49.8119798065	      686.4417620582	      -15.7018086160	        0.2333714322	        0.0000000000	        0.0407205059	        0.0051250769	       -0.0029674081	       -0.0004419261	        0.0000000000	        0.0000000000	        0.0000000000	        0.0000000000	        0.0000000000	        0.0000000000	        0.0000000000	        0.0000000000	        0.0000000000	
        0.1540379672	      -41.0834644891	      659.0534794595	      -16.2574817212	        0.2376632971	        0.0000000000	        0.0407321998	       -0.0253612672	        0.0136514913	        0.0022769678	        0.0000000000	        0.0000000000	        0.0000000000	        0.0000000000	        0.0000000000	        0.0000000000	        0.0000000000	        0.0000000000	        0.0000000000	
        0.1650406792	      -33.6889651716	      635.3293913900	      -16.7132035604	        0.2420028229	        0.0000000000	        0.0407907649	       -0.0177330348	        0.0089746447	        0.0016422800	        0.0000000000	        0.0000000000	        0.0000000000	        0.0000000000	        0.0000000000	        0.0000000000	        0.0000000000	        0.0000000000	        0.0000000000	
        0.1760433911	      -27.5320938475	      615.7621796781	      -17.2880429376	        0.2463439725	        0.0000000000	        0.0408718263	       -0.0124875910	        0.0059965100	        0.0011829582	        0.0000000000	        0.0000000000	        0.0000000000	        0.0000000000	        0.0000000000	        0.0000000000	        0.0000000000	        0.0000000000	        0.0000000000	
